<?xml version="1.0" standalone="no"?>
<!DOCTYPE svg PUBLIC "-//W3C//DTD SVG 20010904//EN"
 "http://www.w3.org/TR/2001/REC-SVG-20010904/DTD/svg10.dtd">
<svg version="1.0" xmlns="http://www.w3.org/2000/svg"
 width="500.000000pt" height="500.000000pt" viewBox="0 0 500.000000 500.000000"
 preserveAspectRatio="xMidYMid meet">
<metadata>
Created by potrace 1.14, written by Peter Selinger 2001-2017
</metadata>
<g transform="translate(0.000000,500.000000) scale(0.100000,-0.100000)"
fill="#000000" stroke="none">
<path d="M2165 4683 l-288 -286 0 -558 c1 -638 12 -585 -98 -475 l-66 66 0
136 c0 99 -4 138 -13 144 -7 4 -10 12 -6 18 3 5 -3 20 -14 32 -11 13 -20 26
-20 30 0 11 -75 85 -91 88 -8 2 -15 8 -17 13 -2 5 -12 9 -21 9 -10 0 -21 3
-24 7 -4 3 -21 8 -39 10 -17 2 -36 7 -42 11 -19 13 -263 7 -280 -7 -9 -8 -16
-10 -16 -6 0 16 -32 -20 -45 -51 -15 -37 -19 -280 -4 -290 5 -3 9 -23 9 -45 0
-21 5 -39 10 -39 6 0 10 -9 10 -20 0 -11 5 -20 10 -20 6 0 10 -7 10 -15 0 -9
16 -31 35 -50 31 -30 59 -47 136 -86 9 -4 75 -7 145 -6 l128 2 78 -79 c43 -44
76 -81 74 -83 -2 -2 -65 -4 -140 -5 -75 0 -139 -4 -141 -8 -5 -8 114 -132 161
-169 17 -13 45 -16 172 -15 l152 2 157 -159 c87 -87 159 -162 161 -167 1 -5
-4 -9 -13 -9 -8 0 -15 3 -15 6 0 3 -98 5 -218 4 l-217 -1 -432 431 c-237 237
-430 434 -427 438 2 4 0 10 -5 13 -6 4 -6 18 -1 37 5 16 5 40 1 52 -5 12 -5
34 0 50 5 16 4 25 -2 22 -5 -4 -6 3 0 17 4 13 5 32 1 43 -4 11 -5 24 -2 29 4
7 4 31 1 109 0 6 1 36 3 65 3 29 0 55 -4 58 -5 3 -5 10 -2 16 3 5 6 27 6 48 0
21 5 40 11 42 7 2 144 4 306 3 l293 -1 84 -86 c69 -72 85 -84 92 -70 4 9 7 69
6 133 l-1 117 -46 46 c-26 25 -53 46 -61 46 -8 0 -17 4 -21 9 -3 6 -163 9
-388 9 -444 0 -443 0 -473 -83 -4 -11 -8 -190 -8 -398 -1 -292 2 -381 11 -389
7 -6 10 -14 8 -19 -3 -4 169 -183 383 -397 l389 -389 -108 0 -109 1 -91 88
c-51 48 -98 88 -105 88 -8 0 -14 5 -14 10 0 6 -13 10 -29 10 -17 0 -33 5 -36
10 -3 6 -37 10 -76 10 -39 0 -69 -4 -69 -10 0 -5 -8 -10 -18 -10 -44 0 -122
-54 -219 -152 l-101 -103 3 -48 c2 -47 5 -52 104 -151 57 -57 118 -109 137
-116 19 -8 34 -17 34 -22 0 -4 10 -8 23 -8 13 0 27 -4 32 -9 15 -15 134 -16
147 -3 7 7 22 12 35 12 35 0 59 17 147 103 44 43 88 82 97 87 9 5 54 9 101 9
46 0 88 1 94 2 28 5 17 -10 -75 -101 -56 -55 -101 -105 -101 -110 0 -9 87 -14
205 -10 50 1 51 2 158 110 l108 108 220 -1 c120 0 222 3 226 6 9 10 23 9 23
-1 0 -5 -72 -81 -160 -169 l-159 -161 -619 0 -619 0 -214 214 -214 214 213
213 213 213 125 1 c69 0 127 3 130 6 4 3 -34 46 -84 95 l-90 90 -79 1 -80 1
-291 -291 c-284 -282 -292 -291 -292 -330 0 -38 8 -47 290 -328 l289 -290 557
0 c306 -1 559 -2 561 -4 1 -2 -31 -38 -73 -80 -55 -56 -83 -77 -102 -78 -15
-1 -69 0 -119 1 -95 1 -146 -10 -195 -42 -14 -10 -28 -18 -31 -18 -12 0 -77
-73 -77 -86 0 -8 -4 -14 -10 -14 -5 0 -10 -9 -10 -20 0 -11 -4 -20 -9 -20 -5
0 -12 -17 -16 -37 -10 -60 -14 -304 -5 -322 5 -9 11 -24 14 -33 11 -36 65 -51
186 -52 63 -1 131 3 150 9 19 6 44 10 55 10 11 0 26 5 33 12 8 7 17 11 22 8 4
-3 11 2 14 11 3 8 10 13 15 10 11 -7 101 82 101 99 0 8 4 15 10 17 5 2 11 12
13 23 1 11 6 26 11 34 5 7 9 71 9 142 l1 129 74 75 c41 41 78 75 82 75 5 0 8
-51 8 -112 0 -158 1 -168 12 -168 5 0 48 38 94 85 l85 86 0 158 0 158 162 161
c90 89 163 162 164 162 0 0 0 -106 -1 -236 l-1 -236 -432 -431 -431 -432 -303
0 c-280 0 -302 2 -301 18 1 9 -2 17 -7 17 -6 0 -5 8 1 19 6 12 6 22 1 26 -6 3
-6 18 -1 36 5 16 5 40 1 51 -4 12 -4 40 0 62 4 22 4 48 0 56 -6 13 -7 36 -2
50 6 16 5 113 -1 116 -4 3 -3 17 3 32 7 18 7 28 0 30 -7 2 -8 10 -2 21 6 10 6
23 1 31 -13 22 11 59 94 139 42 40 74 77 71 82 -3 4 -62 8 -132 8 l-125 -1
-48 -47 c-26 -25 -46 -49 -44 -52 2 -3 -3 -16 -9 -30 -17 -34 -17 -764 1 -795
6 -12 9 -24 6 -26 -3 -3 16 -15 41 -27 44 -21 57 -21 425 -21 231 1 382 5 385
10 4 6 13 10 21 10 8 0 188 173 399 385 211 211 386 381 388 377 2 -4 2 -52 2
-107 l-2 -100 -92 -92 c-51 -51 -90 -93 -86 -93 3 0 -2 -11 -11 -25 -9 -14
-14 -31 -11 -39 3 -8 0 -20 -8 -26 -17 -14 -17 -114 1 -149 7 -13 10 -30 7
-37 -3 -8 -1 -14 3 -14 5 0 17 -18 28 -40 10 -21 65 -84 121 -139 101 -100
102 -101 151 -101 l49 0 108 108 c59 59 105 111 101 115 -4 3 1 9 10 13 9 3
16 15 16 25 0 10 5 19 11 19 6 0 9 8 6 19 -2 10 1 27 7 37 13 23 17 125 6 139
-5 6 -11 23 -14 39 -3 15 -10 34 -17 42 -6 8 -9 14 -5 14 3 0 -35 41 -84 91
-50 49 -90 96 -91 102 -2 44 -4 207 -1 207 1 0 48 -46 103 -101 74 -74 104
-98 109 -88 4 8 8 66 8 129 l0 115 -111 112 -111 112 0 236 c-1 129 0 235 1
235 1 0 76 -74 165 -164 l163 -164 -1 -617 -1 -617 -209 -209 c-115 -115 -213
-209 -219 -209 -6 0 -104 94 -218 208 l-208 208 0 122 c-1 69 -5 125 -11 128
-5 3 -48 -33 -95 -81 l-85 -87 0 -83 0 -82 292 -292 c265 -264 295 -291 325
-291 30 0 60 27 326 292 l292 292 0 551 c0 336 4 552 10 556 5 4 42 -27 82
-68 l74 -75 -1 -127 c0 -70 4 -136 10 -147 6 -10 17 -35 26 -54 20 -48 81
-107 136 -133 25 -11 47 -21 50 -22 87 -19 320 -28 320 -12 0 4 11 7 23 7 28
0 57 29 60 59 1 11 5 21 9 21 4 0 7 63 6 140 -1 77 -6 140 -10 140 -4 0 -8 16
-8 35 0 19 -4 35 -10 35 -5 0 -10 9 -10 20 0 11 -4 20 -10 20 -5 0 -10 7 -10
16 0 8 -19 33 -42 55 -38 35 -60 48 -133 80 -11 5 -40 8 -65 8 -25 -1 -82 0
-126 0 l-81 1 -76 77 c-42 42 -75 79 -72 81 2 2 65 4 139 3 74 0 137 3 140 8
3 5 -33 48 -80 95 -76 75 -91 86 -123 87 -20 0 -91 0 -158 0 l-122 0 -161 160
c-88 88 -160 165 -160 170 0 6 5 7 11 3 7 -4 111 -7 233 -6 l221 1 433 -432
432 -432 0 -305 0 -306 -306 1 -306 0 -84 87 c-46 48 -86 82 -90 77 -3 -6 -6
-67 -5 -135 l1 -124 45 -45 c24 -25 54 -45 65 -45 11 0 20 -4 20 -10 0 -5 146
-9 383 -9 423 0 436 2 466 64 20 42 23 766 3 808 -7 15 -10 27 -7 27 3 0 -170
176 -385 390 -214 215 -390 393 -390 396 0 3 9 2 21 -1 27 -9 159 -12 159 -3
0 21 52 -16 131 -93 50 -49 97 -89 105 -89 8 0 14 -4 14 -10 0 -5 13 -10 28
-10 15 0 33 -5 39 -11 14 -14 117 -13 144 1 11 6 23 8 28 5 5 -3 16 1 24 9 8
8 17 13 19 10 3 -2 11 2 18 11 7 8 18 15 24 15 6 0 58 47 115 104 l104 105 0
51 0 52 -102 101 c-70 70 -119 109 -154 125 -29 13 -60 28 -69 33 -24 12 -145
12 -153 -1 -3 -5 -19 -10 -36 -10 -16 0 -29 -4 -29 -10 0 -5 -6 -10 -14 -10
-7 0 -55 -40 -106 -89 l-92 -90 -92 2 c-50 0 -96 -2 -102 -6 -6 -3 -14 -4 -17
-1 -3 3 39 50 94 105 54 54 99 103 99 109 0 6 -46 10 -128 10 l-128 0 -109
-109 -110 -109 -221 1 c-122 0 -226 -3 -233 -7 -39 -25 9 31 148 171 l159 159
620 1 620 0 214 -214 213 -213 -214 -214 -215 -215 -124 0 c-68 0 -126 -2
-129 -5 -3 -3 35 -45 84 -94 l89 -90 82 -1 82 -1 295 296 c250 250 295 300
295 324 0 25 -45 74 -295 324 l-295 295 -528 0 c-631 0 -582 -1 -582 10 0 6
32 42 71 80 80 79 63 74 234 72 140 -1 261 65 296 162 7 21 16 37 20 37 11 0
21 89 24 220 6 206 -15 227 -225 223 -63 -1 -131 -5 -150 -8 -19 -4 -39 -8
-45 -8 -5 -1 -16 -8 -23 -15 -8 -7 -18 -10 -23 -7 -5 4 -9 1 -9 -4 0 -6 -6
-11 -14 -11 -18 0 -106 -89 -106 -107 0 -7 -4 -13 -10 -13 -5 0 -10 -10 -10
-23 0 -13 -5 -28 -11 -34 -8 -8 -12 -56 -11 -141 l1 -129 -75 -77 c-42 -42
-79 -74 -84 -71 -5 3 -8 58 -8 123 1 145 0 152 -11 152 -4 0 -46 -38 -93 -84
l-85 -84 0 -144 c-1 -78 -2 -150 -2 -159 -1 -9 -73 -89 -162 -179 -118 -120
-164 -159 -172 -151 -7 7 -7 11 -1 11 7 0 10 82 10 231 1 180 4 233 14 239 22
13 830 824 830 832 0 5 11 8 25 8 14 0 25 6 25 13 0 8 3 8 8 1 5 -7 100 -10
287 -10 l280 1 3 -306 2 -305 -83 -82 c-46 -44 -81 -86 -77 -91 3 -6 56 -10
129 -10 l123 0 46 46 c25 26 48 56 49 67 2 12 7 22 11 23 4 2 7 175 6 385 -1
422 -2 431 -63 461 -40 20 -756 24 -811 4 -25 -8 -145 -122 -417 -394 -211
-211 -384 -383 -386 -383 -2 0 -2 49 -1 109 l2 109 91 92 c50 50 91 98 91 106
0 8 5 14 11 14 6 0 9 9 6 19 -3 11 1 28 8 38 16 23 14 135 -3 155 -6 8 -9 17
-6 20 13 14 -61 117 -150 208 l-99 100 -51 0 -51 0 -106 -107 c-58 -60 -112
-121 -120 -138 -7 -16 -18 -33 -24 -37 -5 -4 -7 -8 -3 -8 4 0 1 -18 -7 -40
-17 -48 -16 -140 2 -158 6 -7 9 -20 6 -29 -4 -9 1 -19 11 -25 9 -5 14 -13 11
-18 -3 -5 35 -50 85 -100 49 -50 90 -99 91 -108 2 -48 4 -202 1 -202 -1 0 -48
45 -104 101 -71 71 -104 97 -109 87 -4 -7 -7 -65 -7 -128 l0 -115 110 -110
110 -110 2 -230 c1 -126 1 -233 -1 -237 -2 -3 -75 66 -163 154 l-160 160 0
137 c0 75 -1 354 0 621 l0 485 207 207 c115 114 213 208 218 208 6 0 105 -96
220 -213 l211 -212 -2 -118 c-1 -64 3 -120 8 -123 5 -3 47 33 94 79 l86 85 1
83 2 83 -288 288 c-288 287 -289 288 -331 288 -42 0 -44 -2 -331 -287z m389
-496 c63 -65 84 -119 63 -159 -19 -37 -105 -128 -120 -128 -16 0 -111 98 -122
125 -15 35 -14 63 1 76 8 6 14 17 14 24 0 14 90 114 103 115 5 0 32 -24 61
-53z m-1081 -480 c38 -26 48 -57 50 -145 2 -57 -1 -73 -13 -76 -25 -7 -160 -3
-160 4 0 4 -9 10 -19 13 -35 9 -54 53 -56 130 -1 40 1 78 3 85 7 21 161 13
195 -11z m2239 11 c3 -7 4 -48 2 -91 -5 -115 -42 -147 -169 -145 l-75 1 0 82
c0 45 3 85 8 89 4 4 7 12 7 17 0 5 11 19 25 32 21 20 36 24 111 26 63 1 88 -2
91 -11z m-2729 -1089 c25 -13 127 -110 127 -120 0 -10 -98 -103 -113 -108 -6
-2 -17 -10 -24 -16 -13 -13 -60 -9 -69 6 -3 5 -12 9 -21 9 -9 0 -41 25 -70 56
l-54 56 56 54 c30 30 61 54 69 54 8 0 18 5 21 10 8 13 51 13 78 -1z m3121 -9
c19 -10 56 -40 81 -65 l46 -45 -54 -53 c-63 -61 -138 -95 -158 -71 -6 8 -17
14 -23 14 -6 0 -36 25 -66 55 l-54 55 49 51 c80 81 118 94 179 59z m-2583
-1094 c6 -52 -3 -151 -15 -173 -27 -52 -44 -59 -141 -59 l-90 1 1 65 c1 36 2
75 3 87 1 12 17 38 37 57 35 34 37 34 120 34 52 -1 84 -5 85 -12z m2154 -20
c35 -31 36 -31 38 -121 l2 -90 -89 -1 c-82 -2 -91 0 -117 23 -16 14 -26 29
-24 33 3 4 -1 12 -8 18 -8 7 -11 35 -9 90 l3 79 84 0 c79 0 86 -2 120 -31z
m-1101 -455 c51 -56 59 -80 45 -125 -12 -35 -106 -146 -124 -146 -15 0 -107
104 -118 133 -21 60 -12 83 61 159 l56 58 25 -23 c13 -12 38 -37 55 -56z"/>
</g>
</svg>
